{"title":"Robocop 2014 1080p.BluRay.5.1.x264 . NVEE","uid":10132311,"size":2673288378,"categoryP":"video","categoryS":"hd___movies","magnet":"?xt=urn:btih:820dccc110b6696e2b193ab204adf58b321d058e&amp;dn=Robocop+2014+1080p.BluRay.5.1.x264+.+NVEE&amp;tr=udp%3A%2F%2Ftracker.openbittorrent.com%3A80&amp;tr=udp%3A%2F%2Fopen.demonii.com%3A1337&amp;tr=udp%3A%2F%2Ftracker.coppersurfer.tk%3A6969&amp;tr=udp%3A%2F%2Fexodus.desync.com%3A6969","seeders":1,"leechers":0,"uploader":".NVEE","files":-1,"time":1399853008,"description":"\n\nQuick note :\nIf you require a torrent release I have posted in the past, not seeding,...\nPlease do not hesitate to inform me in any means you find fit to do so.\nTorrent requests also &quot;Always Welcome.&quot;\n\n\nFULL_INFOs\n\n99.99% --- SYNCED GUARANTEED \n\n&quot;Totally scrutinized / analyzed to be a verified torrent.&quot;\n___________________________________________\n\nSource : Blu-ray ~ 1080p\n\n\n\nSpoken Language : English\n\nAudio : 6 ~ Channels Only\n\n\nSubs Info :\n\nEnglish Embedded UTF-8\n\nText #1\nID : 3\nFormat : Timed Text\nCodec ID : tx3g\nDuration : 1h 51mn\nBit rate mode : Variable\nBit rate : 81 bps\nStream size : 65.9 KiB (0%)\nTitle : English\nLanguage : English\nEncoded date : UTC 2014-05-12 06:03:28\nTagged date : UTC 2014-05-12 06:03:28\n\nText #2\nID : 4\nFormat : Timed Text\nCodec ID : tx3g\nDuration : 6mn 42s\nBit rate mode : Variable\nBit rate : 16 bps\nStream size : 816 Bytes (0%)\nTitle : English-Forced\nLanguage : English\nEncoded date : UTC 2014-05-12 06:03:28\nTagged date : UTC 2014-05-12 06:03:28\n\nAll .srt UTF-8 &amp; .idx subs can be turned On/Off\n_____________________________________\n---------------------------------------------------------------------------------\n\nGeneral Metadata\n\nComplete name : Robocop 2014.800p.BluRay.5.1.x264 . NVEE.mp4\nFormat : MPEG-4\nFormat profile : Base Media\nCodec ID : isom\nFile size : 2.49 GiB\nDuration : 1h 57mn\nOverall bit rate mode : Variable\nOverall bit rate : 3 034 Kbps\nEncoded date : UTC 2014-05-12 05:51:07\nTagged date : UTC 2014-05-12 05:51:07\n\n\nVideo\n\nID : 1\nFormat : AVC\nFormat/Info : Advanced Video Codec\nFormat profile : &lt;a class=&quot;__cf_email__&quot; href=&quot;/cdn-cgi/l/email-protection&quot; data-cfemail=&quot;723a1b151a323e465c43&quot;&gt;[email&amp;#160;protected]&lt;/a&gt;&lt;script cf-hash='f9e31' type=&quot;text/javascript&quot;&gt;\n/* &lt;![CDATA[ */!function(){try{var t=&quot;currentScript&quot;in document?document.currentScript:function(){for(var t=document.getElementsByTagName(&quot;script&quot;),e=t.length;e--;)if(t[e].getAttribute(&quot;cf-hash&quot;))return t[e]}();if(t&amp;&amp;t.previousSibling){var e,r,n,i,c=t.previousSibling,a=c.getAttribute(&quot;data-cfemail&quot;);if(a){for(e=&quot;&quot;,r=parseInt(a.substr(0,2),16),n=2;a.length-n;n+=2)i=parseInt(a.substr(n,2),16)^r,e+=String.fromCharCode(i);e=document.createTextNode(e),c.parentNode.replaceChild(e,c)}}}catch(u){}}();/* ]]&gt; */&lt;/script&gt;\nFormat settings, CABAC : Yes\nFormat settings, ReFrames : 3 frames\nCodec ID : avc1\nCodec ID/Info : Advanced Video Coding\nDuration : 1h 57mn\nBit rate : 2 392 Kbps\nMaximum bit rate : 26.0 Mbps\nWidth : 1 920 pixels\nHeight : 800 pixels\nDisplay aspect ratio : 2.40:1\nFrame rate mode : Constant\nFrame rate : 23.976 fps\nColor space : YUV\nChroma subsampling : 4:2:0\nBit depth : 8 bits\nScan type : Progressive\nBits/(Pixel*Frame) : 0.065\nStream size : 1.96 GiB (79%)\nWriting library : x264 core 142 r2409 d6b4e63\nEncoded from Physical Blu-ray / Region B\n\n\nAudio\n\nID : 2\nFormat : AC-3\nFormat/Info : Audio Coding 3\nMode extension : CM (complete main)\nFormat settings, Endianness : Big\nCodec ID : ac-3\nDuration : 1h 57mn\nBit rate mode : Constant\nBit rate : 640 Kbps\nChannel(s) : 6 channels\nChannel positions : Front: L C R, Side: L R, LFE\nSampling rate : 48.0 KHz\nBit depth : 16 bits\nCompression mode : Lossy\nStream size : 538 MiB (21%)\nLanguage : English\nEncoded date : UTC 2014-05-12 06:01:04\nTagged date : UTC 2014-05-12 06:03:28\nEncoded from Physical Blu-ray 6 Channel audio &quot;Always&quot;.\n\n\nEnj0y !\n","torrent":{"xt":"urn:btih:820dccc110b6696e2b193ab204adf58b321d058e","amp;dn":"Robocop+2014+1080p.BluRay.5.1.x264+.+NVEE","amp;tr":["udp%3A%2F%2Ftracker.openbittorrent.com%3A80","udp%3A%2F%2Fopen.demonii.com%3A1337","udp%3A%2F%2Ftracker.coppersurfer.tk%3A6969","udp%3A%2F%2Fexodus.desync.com%3A6969"],"infoHash":"820dccc110b6696e2b193ab204adf58b321d058e","infoHashBuffer":{"type":"Buffer","data":[130,13,204,193,16,182,105,110,43,25,58,178,4,173,245,139,50,29,5,142]},"announce":[],"urlList":[]}}